<?xml version="1.0" encoding="UTF-8" standalone="no"?>
<!-- Created with Inkscape (http://www.inkscape.org/) -->

<svg
   width="1182"
   height="100"
   viewBox="0 0 1182 100"
   version="1.1"
   id="SVGRoot"
   sodipodi:docname="banner.svg"
   inkscape:version="1.2.2 (1:1.2.2+202212051552+b0a8486541)"
   xml:space="preserve"
   xmlns:inkscape="http://www.inkscape.org/namespaces/inkscape"
   xmlns:sodipodi="http://sodipodi.sourceforge.net/DTD/sodipodi-0.dtd"
   xmlns="http://www.w3.org/2000/svg"
   xmlns:svg="http://www.w3.org/2000/svg"><sodipodi:namedview
     id="namedview137"
     pagecolor="#66b73d"
     bordercolor="#000000"
     borderopacity="0.25"
     inkscape:showpageshadow="2"
     inkscape:pageopacity="0"
     inkscape:pagecheckerboard="0"
     inkscape:deskcolor="#d1d1d1"
     inkscape:document-units="px"
     showgrid="false"
     inkscape:zoom="1.1319797"
     inkscape:cx="591"
     inkscape:cy="50.35426"
     inkscape:current-layer="layer1"
     showguides="false"
     inkscape:lockguides="false"><sodipodi:guide
       position="2.25,44"
       orientation="0,-1"
       id="guide2196"
       inkscape:locked="false" /></sodipodi:namedview><defs
     id="defs132"><filter
       style="color-interpolation-filters:sRGB"
       inkscape:label="Drop Shadow"
       id="filter1140"
       x="-0.017999999"
       y="-0.017999999"
       width="1.036"
       height="1.036"><feFlood
         flood-opacity="0.498039"
         flood-color="rgb(0,0,0)"
         result="flood"
         id="feFlood1130" /><feComposite
         in="flood"
         in2="SourceGraphic"
         operator="in"
         result="composite1"
         id="feComposite1132" /><feGaussianBlur
         in="composite1"
         stdDeviation="6"
         result="blur"
         id="feGaussianBlur1134" /><feOffset
         dx="0"
         dy="0"
         result="offset"
         id="feOffset1136" /><feComposite
         in="SourceGraphic"
         in2="offset"
         operator="over"
         result="composite2"
         id="feComposite1138" /></filter><filter
       style="color-interpolation-filters:sRGB"
       inkscape:label="Drop Shadow"
       id="filter1368"
       x="-0.033256352"
       y="-0.033256352"
       width="1.0665127"
       height="1.0665127"><feFlood
         flood-opacity="0.498039"
         flood-color="rgb(0,0,0)"
         result="flood"
         id="feFlood1358" /><feComposite
         in="flood"
         in2="SourceGraphic"
         operator="in"
         result="composite1"
         id="feComposite1360" /><feGaussianBlur
         in="composite1"
         stdDeviation="6"
         result="blur"
         id="feGaussianBlur1362" /><feOffset
         dx="0"
         dy="0"
         result="offset"
         id="feOffset1364" /><feComposite
         in="SourceGraphic"
         in2="offset"
         operator="over"
         result="composite2"
         id="feComposite1366" /></filter><filter
       style="color-interpolation-filters:sRGB"
       inkscape:label="Drop Shadow"
       id="filter1380"
       x="-0.02139673"
       y="-0.02139673"
       width="1.0427935"
       height="1.0427935"><feFlood
         flood-opacity="0.498039"
         flood-color="rgb(0,0,0)"
         result="flood"
         id="feFlood1370" /><feComposite
         in="flood"
         in2="SourceGraphic"
         operator="in"
         result="composite1"
         id="feComposite1372" /><feGaussianBlur
         in="composite1"
         stdDeviation="6"
         result="blur"
         id="feGaussianBlur1374" /><feOffset
         dx="0"
         dy="0"
         result="offset"
         id="feOffset1376" /><feComposite
         in="SourceGraphic"
         in2="offset"
         operator="over"
         result="composite2"
         id="feComposite1378" /></filter><filter
       style="color-interpolation-filters:sRGB"
       inkscape:label="Drop Shadow"
       id="filter1392"
       x="-0.015772179"
       y="-0.015772179"
       width="1.0315444"
       height="1.0315444"><feFlood
         flood-opacity="0.498039"
         flood-color="rgb(0,0,0)"
         result="flood"
         id="feFlood1382" /><feComposite
         in="flood"
         in2="SourceGraphic"
         operator="in"
         result="composite1"
         id="feComposite1384" /><feGaussianBlur
         in="composite1"
         stdDeviation="6"
         result="blur"
         id="feGaussianBlur1386" /><feOffset
         dx="0"
         dy="0"
         result="offset"
         id="feOffset1388" /><feComposite
         in="SourceGraphic"
         in2="offset"
         operator="over"
         result="composite2"
         id="feComposite1390" /></filter><filter
       style="color-interpolation-filters:sRGB"
       inkscape:label="Drop Shadow"
       id="filter3251"
       x="-0.048484847"
       y="-0.048484847"
       width="1.0969697"
       height="1.0969697"><feFlood
         flood-opacity="0.498039"
         flood-color="rgb(0,0,0)"
         result="flood"
         id="feFlood3241" /><feComposite
         in="flood"
         in2="SourceGraphic"
         operator="in"
         result="composite1"
         id="feComposite3243" /><feGaussianBlur
         in="composite1"
         stdDeviation="6"
         result="blur"
         id="feGaussianBlur3245" /><feOffset
         dx="0"
         dy="0"
         result="offset"
         id="feOffset3247" /><feComposite
         in="SourceGraphic"
         in2="offset"
         operator="over"
         result="composite2"
         id="feComposite3249" /></filter><filter
       style="color-interpolation-filters:sRGB"
       inkscape:label="Drop Shadow"
       id="filter3263"
       x="-0.027852997"
       y="-0.027852997"
       width="1.055706"
       height="1.055706"><feFlood
         flood-opacity="0.498039"
         flood-color="rgb(0,0,0)"
         result="flood"
         id="feFlood3253" /><feComposite
         in="flood"
         in2="SourceGraphic"
         operator="in"
         result="composite1"
         id="feComposite3255" /><feGaussianBlur
         in="composite1"
         stdDeviation="6"
         result="blur"
         id="feGaussianBlur3257" /><feOffset
         dx="0"
         dy="0"
         result="offset"
         id="feOffset3259" /><feComposite
         in="SourceGraphic"
         in2="offset"
         operator="over"
         result="composite2"
         id="feComposite3261" /></filter><filter
       style="color-interpolation-filters:sRGB"
       inkscape:label="Drop Shadow"
       id="filter3275"
       x="-0.019538671"
       y="-0.019538671"
       width="1.0390773"
       height="1.0390773"><feFlood
         flood-opacity="0.498039"
         flood-color="rgb(0,0,0)"
         result="flood"
         id="feFlood3265" /><feComposite
         in="flood"
         in2="SourceGraphic"
         operator="in"
         result="composite1"
         id="feComposite3267" /><feGaussianBlur
         in="composite1"
         stdDeviation="6"
         result="blur"
         id="feGaussianBlur3269" /><feOffset
         dx="0"
         dy="0"
         result="offset"
         id="feOffset3271" /><feComposite
         in="SourceGraphic"
         in2="offset"
         operator="over"
         result="composite2"
         id="feComposite3273" /></filter><filter
       style="color-interpolation-filters:sRGB"
       inkscape:label="Drop Shadow"
       id="filter3287"
       x="-0.015047022"
       y="-0.015047022"
       width="1.030094"
       height="1.030094"><feFlood
         flood-opacity="0.498039"
         flood-color="rgb(0,0,0)"
         result="flood"
         id="feFlood3277" /><feComposite
         in="flood"
         in2="SourceGraphic"
         operator="in"
         result="composite1"
         id="feComposite3279" /><feGaussianBlur
         in="composite1"
         stdDeviation="6"
         result="blur"
         id="feGaussianBlur3281" /><feOffset
         dx="0"
         dy="0"
         result="offset"
         id="feOffset3283" /><feComposite
         in="SourceGraphic"
         in2="offset"
         operator="over"
         result="composite2"
         id="feComposite3285" /></filter><filter
       style="color-interpolation-filters:sRGB"
       inkscape:label="Drop Shadow"
       id="filter1220"
       x="-0.048484847"
       y="-0.048484847"
       width="1.0969697"
       height="1.0969697"><feFlood
         flood-opacity="0.498039"
         flood-color="rgb(0,0,0)"
         result="flood"
         id="feFlood1210" /><feComposite
         in="flood"
         in2="SourceGraphic"
         operator="in"
         result="composite1"
         id="feComposite1212" /><feGaussianBlur
         in="composite1"
         stdDeviation="6"
         result="blur"
         id="feGaussianBlur1214" /><feOffset
         dx="0"
         dy="0"
         result="offset"
         id="feOffset1216" /><feComposite
         in="SourceGraphic"
         in2="offset"
         operator="over"
         result="composite2"
         id="feComposite1218" /></filter><filter
       style="color-interpolation-filters:sRGB"
       inkscape:label="Drop Shadow"
       id="filter1232"
       x="-0.048484847"
       y="-0.048484847"
       width="1.0969697"
       height="1.0969697"><feFlood
         flood-opacity="0.498039"
         flood-color="rgb(0,0,0)"
         result="flood"
         id="feFlood1222" /><feComposite
         in="flood"
         in2="SourceGraphic"
         operator="in"
         result="composite1"
         id="feComposite1224" /><feGaussianBlur
         in="composite1"
         stdDeviation="6"
         result="blur"
         id="feGaussianBlur1226" /><feOffset
         dx="0"
         dy="0"
         result="offset"
         id="feOffset1228" /><feComposite
         in="SourceGraphic"
         in2="offset"
         operator="over"
         result="composite2"
         id="feComposite1230" /></filter><filter
       style="color-interpolation-filters:sRGB"
       inkscape:label="Drop Shadow"
       id="filter1244"
       x="-0.048484847"
       y="-0.048484847"
       width="1.0969697"
       height="1.0969697"><feFlood
         flood-opacity="0.498039"
         flood-color="rgb(0,0,0)"
         result="flood"
         id="feFlood1234" /><feComposite
         in="flood"
         in2="SourceGraphic"
         operator="in"
         result="composite1"
         id="feComposite1236" /><feGaussianBlur
         in="composite1"
         stdDeviation="6"
         result="blur"
         id="feGaussianBlur1238" /><feOffset
         dx="0"
         dy="0"
         result="offset"
         id="feOffset1240" /><feComposite
         in="SourceGraphic"
         in2="offset"
         operator="over"
         result="composite2"
         id="feComposite1242" /></filter><filter
       style="color-interpolation-filters:sRGB"
       inkscape:label="Drop Shadow"
       id="filter1256"
       x="-0.048484847"
       y="-0.048484847"
       width="1.0969697"
       height="1.0969697"><feFlood
         flood-opacity="0.498039"
         flood-color="rgb(0,0,0)"
         result="flood"
         id="feFlood1246" /><feComposite
         in="flood"
         in2="SourceGraphic"
         operator="in"
         result="composite1"
         id="feComposite1248" /><feGaussianBlur
         in="composite1"
         stdDeviation="6"
         result="blur"
         id="feGaussianBlur1250" /><feOffset
         dx="0"
         dy="0"
         result="offset"
         id="feOffset1252" /><feComposite
         in="SourceGraphic"
         in2="offset"
         operator="over"
         result="composite2"
         id="feComposite1254" /></filter></defs><g
     inkscape:label="circles"
     inkscape:groupmode="layer"
     id="layer1"><g
       id="g648"><path
         id="path2266"
         style="font-variation-settings:'wdth' 99.9, 'wght' 800;fill:none;fill-opacity:0.0;stroke:#ffffff;stroke-width:16;stroke-opacity:0.2"
         d="m 420,-22 a 72,72 0 0 1 72,72 72,72 0 0 1 -72,72" /><path
         id="path2320"
         style="font-variation-settings:'wdth' 99.9, 'wght' 800;fill:none;fill-opacity:0.0;stroke:#ffffff;stroke-opacity:0.2"
         d="M 580,-189.5 A 239.5,239.5 0 0 1 819.5,50 239.5,239.5 0 0 1 580,289.5" /><g
         id="g599"><path
           d="M 430.667 -33.1667 C 452.723 -33.1667 473.876 -24.4054 489.472 -8.81002 L 489.475 -8.8071 C 505.07 6.78808 513.832 27.9389 513.833 49.9935 L 513.833 50.0017 C 513.833 72.2329 504.966 93.3168 489.474 108.808 C 473.982 124.3 452.898 133.167 430.667 133.167"
           style="fill:none;stroke:#ffffff;fill-opacity:0.0;stroke-opacity:0.2;stroke-width:15px"
           id="path569" /><path
           d="M 441.333 -44.3333 C 466.351 -44.3333 490.344 -34.3955 508.035 -16.7059 L 508.038 -16.7025 C 525.727 0.986879 535.665 24.978 535.667 49.9939 L 535.667 50.0034 C 535.666 75.3703 525.517 99.2245 508.036 116.705 C 490.555 134.185 466.7 144.333 441.333 144.333"
           style="fill:none;stroke:#ffffff;fill-opacity:0.0;stroke-opacity:0.2;stroke-width:14px"
           id="path571" /><path
           d="M 452 -55.5 C 479.979 -55.5 506.813 -44.3856 526.598 -24.6017 L 526.602 -24.5979 C 546.384 -4.81432 557.499 22.017 557.5 49.9944 L 557.5 50.0051 C 557.499 78.5077 546.068 105.132 526.598 124.601 C 507.128 144.071 480.503 155.5 452 155.5"
           style="fill:none;stroke:#ffffff;fill-opacity:0.0;stroke-opacity:0.2;stroke-width:13px"
           id="path573" /><path
           d="M 462.667 -66.6667 C 493.608 -66.6667 523.282 -54.3757 545.161 -32.4976 L 545.165 -32.4933 C 567.041 -10.6155 579.332 19.056 579.333 49.9949 L 579.333 50.0069 C 579.331 81.645 566.62 111.04 545.16 132.498 C 523.701 153.956 494.305 166.667 462.667 166.667"
           style="fill:none;stroke:#ffffff;fill-opacity:0.0;stroke-opacity:0.2;stroke-width:12px"
           id="path575" /><path
           d="M 473.333 -77.8333 C 507.236 -77.8333 539.75 -64.3658 563.724 -40.3935 L 563.728 -40.3887 C 587.699 -16.4167 601.165 16.095 601.167 49.9953 L 601.167 50.0086 C 601.164 84.7824 587.171 116.948 563.722 140.395 C 540.274 163.842 508.108 177.833 473.333 177.833"
           style="fill:none;stroke:#ffffff;fill-opacity:0.0;stroke-opacity:0.2;stroke-width:11px"
           id="path577" /><path
           d="M 484 -89 C 520.864 -89 556.219 -74.356 582.286 -48.2893 L 582.292 -48.2841 C 608.356 -22.2179 622.999 13.134 623 49.9958 L 623 50.0103 C 622.997 87.9197 607.722 122.855 582.284 148.291 C 556.847 173.727 521.91 189 484 189"
           style="fill:none;stroke:#ffffff;fill-opacity:0.0;stroke-opacity:0.2;stroke-width:10px"
           id="path579" /><path
           d="M 494.667 -100.167 C 534.493 -100.167 572.688 -84.3461 600.849 -56.1852 L 600.855 -56.1796 C 629.013 -28.0191 644.832 10.173 644.833 49.9963 L 644.833 50.012 C 644.83 91.0571 628.273 128.763 600.847 156.188 C 573.42 183.613 535.712 200.167 494.667 200.167"
           style="fill:none;stroke:#ffffff;fill-opacity:0.0;stroke-opacity:0.2;stroke-width:9px"
           id="path581" /><path
           d="M 505.333 -111.333 C 548.121 -111.333 589.156 -94.3362 619.412 -64.081 L 619.418 -64.075 C 649.67 -33.8203 666.666 7.21198 666.667 49.9967 L 666.667 50.0137 C 666.663 94.1944 648.825 134.671 619.409 164.084 C 589.993 193.498 549.515 211.333 505.333 211.333"
           style="fill:none;stroke:#ffffff;fill-opacity:0.0;stroke-opacity:0.2;stroke-width:8px"
           id="path583" /><path
           d="M 516 -122.5 C 561.749 -122.5 605.625 -104.326 637.975 -71.9769 L 637.981 -71.9704 C 670.327 -39.6215 688.499 4.25098 688.5 49.9972 L 688.5 50.0154 C 688.496 97.3318 669.376 140.578 637.971 171.981 C 606.566 203.384 563.317 222.5 516 222.5"
           style="fill:none;stroke:#ffffff;fill-opacity:0.0;stroke-opacity:0.2;stroke-width:7px"
           id="path585" /><path
           d="M 526.667 -133.667 C 575.378 -133.667 622.094 -114.316 656.538 -79.8728 L 656.545 -79.8658 C 690.985 -45.4227 710.333 1.28999 710.333 49.9977 L 710.333 50.0172 C 710.329 100.469 689.927 146.486 656.533 179.878 C 623.139 213.269 577.12 233.667 526.667 233.667"
           style="fill:none;stroke:#ffffff;fill-opacity:0.0;stroke-opacity:0.2;stroke-width:6px"
           id="path587" /><path
           d="M 537.333 -144.833 C 589.006 -144.833 638.562 -124.307 675.101 -87.7686 L 675.108 -87.7612 C 711.642 -51.2239 732.166 -1.67101 732.167 49.9981 L 732.167 50.0189 C 732.162 103.606 710.479 152.394 675.095 187.774 C 639.712 223.155 590.922 244.833 537.333 244.833"
           style="fill:none;stroke:#ffffff;fill-opacity:0.0;stroke-opacity:0.2;stroke-width:5px"
           id="path589" /><path
           d="M 548 -156 C 602.634 -156 655.031 -134.297 693.664 -95.6645 L 693.671 -95.6566 C 732.299 -57.0251 754 -4.632 754 49.9986 L 754 50.0206 C 753.994 106.744 731.03 158.301 693.657 195.671 C 656.284 233.04 604.725 256 548 256"
           style="fill:none;stroke:#ffffff;fill-opacity:0.0;stroke-opacity:0.2;stroke-width:4px"
           id="path591" /><path
           d="M 558.667 -167.167 C 616.263 -167.167 671.5 -144.287 712.226 -103.56 L 712.235 -103.552 C 752.956 -62.8263 775.833 -7.593 775.833 49.9991 L 775.833 50.0223 C 775.827 109.881 751.581 164.209 712.219 203.567 C 672.857 242.926 618.527 267.167 558.667 267.167"
           style="fill:none;stroke:#ffffff;fill-opacity:0.0;stroke-opacity:0.2;stroke-width:3px"
           id="path593" /><path
           d="M 569.333 -178.333 C 629.891 -178.333 687.968 -154.277 730.789 -111.456 L 730.798 -111.447 C 773.613 -68.6275 797.667 -10.554 797.667 49.9995 C 797.667 50.0077 797.667 50.0159 797.667 50.024 C 797.66 113.019 772.133 170.117 730.782 211.464 C 689.43 252.811 632.329 278.333 569.333 278.333"
           style="fill:none;stroke:#ffffff;fill-opacity:0.0;stroke-opacity:0.2;stroke-width:2px"
           id="path595" /></g></g></g><g
     inkscape:groupmode="layer"
     id="layer2"
     inkscape:label="placeholder (invisible)"
     style="display:none"
     sodipodi:insensitive="true"><g
       inkscape:label="Layer 1"
       id="layer1-5"
       transform="translate(0,27)"><g
         id="g963"><circle
           style="font-variation-settings:'wdth' 99.9, 'wght' 800;fill:#007dbc;stroke:#ffffff;stroke-width:4.5;stroke-dasharray:none;stroke-opacity:1"
           id="path959"
           cx="29"
           cy="29"
           r="26.75" /><path
           style="color:#000000;fill:#ffffff;stroke:none;stroke-width:0;stroke-dasharray:none"
           d="M 13.250001,14.375001 H 17.75 V 34.625 c 0,2.511927 1.988074,4.5 4.499997,4.5 H 35.75 c 2.511927,0 4.5,-1.988073 4.5,-4.5 v -11.25 c 0,-1.269285 -0.980714,-2.25 -2.25,-2.25 -1.26929,0 -2.25,0.980712 -2.25,2.25 v 11.25 h -4.499999 v -11.25 c 0,-1.269288 -0.980712,-2.25 -2.25,-2.25 -1.269289,0 -2.25,0.980712 -2.25,2.25 v 11.25 H 22.25 v -11.25 c 0,-3.701265 3.048735,-6.749999 6.750001,-6.749999 1.729077,0 3.300034,0.68328 4.499999,1.769676 1.199966,-1.086396 2.770921,-1.769676 4.5,-1.769676 3.701264,0 6.75,3.048736 6.75,6.749999 v 11.25 c 0,4.943902 -4.056098,9 -9,9 h -13.5 c -4.943904,0 -8.999999,-4.056098 -8.999999,-9 z"
           id="path984" /></g><g
         id="g1414"
         transform="matrix(0.97192,0,0,0.97192,8.633153,3.753802)"
         style="stroke-width:1.02889"><path
           id="path3535"
           style="font-size:185px;font-family:'Exo 2';-inkscape-font-specification:'Exo 2, @wght=550';font-variation-settings:'wght' 550;display:inline;fill:#ffffff;fill-opacity:1;stroke:none;stroke-width:0"
           d="m 237.60618,13.709329 v 6.101254 l -3.72586,0.193956 v 3.126357 h 3.72586 v 12.29022 c 0,1.855708 0.48511,3.28318 1.45579,4.282407 0.97069,0.970678 2.36981,1.456252 4.19696,1.456252 0.3997,0 0.91361,-0.0288 1.54172,-0.0859 0.62808,-0.0571 1.27025,-0.142602 1.92689,-0.256799 0.65663,-0.08565 1.22771,-0.199956 1.71306,-0.342701 l -0.51405,-3.340206 h -2.99752 c -0.97068,0 -1.65607,-0.18541 -2.05574,-0.556551 -0.3997,-0.39969 -0.59952,-1.056273 -0.59952,-1.969852 v -11.47687 h 6.38067 V 19.79069 h -6.38067 v -6.081361 z m -13.48968,5.524359 c -1.54166,0 -3.1118,0.356868 -4.71055,1.070601 -1.51403,0.648868 -3.01507,1.557167 -4.5035,2.7181 l -0.37842,-3.231699 h -3.85426 v 20.940935 h 4.66761 V 25.904604 c 1.42343,-0.809352 2.67241,-1.454916 3.72586,-1.917407 1.17053,-0.542438 2.32662,-0.813803 3.46861,-0.813803 0.97067,0 1.65607,0.243013 2.05574,0.728354 0.42824,0.456789 0.64245,1.29878 0.64245,2.526403 v 14.303474 h 4.66762 V 25.014847 c 0,-3.854162 -1.92699,-5.781159 -5.78116,-5.781159 z m -19.74185,0.556824 v 20.940972 h -4.625 V 19.790512 Z m -1.2419,-9.078704 q 1.4132,0 1.4132,1.413194 v 2.398149 q 0,1.413194 -1.4132,1.413194 h -2.09838 q -1.41319,0 -1.41319,-1.413194 v -2.398149 q 0,-1.413194 1.41319,-1.413194 z m -28.69208,8.52188 c -1.51312,0 -2.96893,0.342919 -4.36787,1.028104 -1.28884,0.617574 -2.61623,1.541907 -3.98083,2.765569 l -0.34452,-3.236671 h -3.76835 v 20.940935 h 4.66761 V 25.816442 c 0.83449,-0.573333 1.56683,-1.044956 2.18415,-1.401095 0.74229,-0.42824 1.39886,-0.741905 1.96986,-0.94175 0.59953,-0.199845 1.21335,-0.300203 1.84143,-0.300203 0.9707,0 1.69882,0.243013 2.18417,0.728354 0.48535,0.485338 0.72789,1.327328 0.72789,2.526403 v 14.303474 h 4.49625 V 25.881546 c 0.83315,-0.56996 1.57773,-1.059391 2.18417,-1.42325 0.71373,-0.456789 1.37032,-0.784854 1.96986,-0.984699 0.59954,-0.199845 1.22775,-0.300203 1.8844,-0.300203 1.05632,0 1.7984,0.256963 2.22664,0.770851 0.42824,0.513889 0.64245,1.341931 0.64245,2.483906 v 14.303474 h 4.62512 V 25.014847 c 0,-1.884257 -0.48558,-3.311729 -1.45625,-4.282407 -0.97069,-0.999227 -2.36935,-1.498752 -4.1965,-1.498752 -1.48459,0 -2.92646,0.342919 -4.32537,1.028104 -1.23283,0.590731 -2.51227,1.460694 -3.83753,2.605974 -0.24572,-0.885507 -0.65011,-1.612208 -1.21574,-2.177824 -0.94213,-0.970678 -2.31243,-1.456254 -4.11104,-1.456254 z m -37.47106,0.557002 6.33814,10.149016 -6.8522,10.791919 h 4.92487 l 5.61613,-9.250215 h 0.63657 l 5.6523,9.250215 h 4.88236 l -6.8522,-10.791919 6.33815,-10.149016 h -4.8819 l -5.05461,8.435963 h -0.81109 L 141.8515,19.79069 Z m -23.1676,0 v 15.716326 c 0,3.854165 1.9414,5.78116 5.82411,5.78116 1.57021,0 3.11154,-0.328516 4.62466,-0.985153 1.39039,-0.603377 2.81743,-1.474977 4.28014,-2.608687 l 0.38792,3.037289 h 3.6829 V 19.79069 h -4.66806 v 15.001085 c -1.28759,0.783811 -2.4082,1.400577 -3.3402,1.828794 -1.02778,0.45679 -2.06958,0.684949 -3.12591,0.684949 -1.08487,0 -1.87016,-0.24256 -2.3555,-0.7279 -0.45679,-0.485338 -0.671,-1.298979 -0.64245,-2.440954 V 19.79069 Z m -11.64822,-0.557002 c -1.54167,0 -3.111793,0.356868 -4.710557,1.070601 -1.514028,0.648868 -3.015069,1.557167 -4.503491,2.7181 L 92.561323,19.79069 h -3.854256 v 20.940935 h 4.667606 V 25.905056 c 1.423609,-0.809461 2.672308,-1.455324 3.725859,-1.917859 1.170523,-0.542438 2.326629,-0.813803 3.468608,-0.813803 0.97067,0 1.65606,0.243013 2.05575,0.728354 0.42824,0.456789 0.64245,1.29878 0.64245,2.526403 v 14.303474 h 4.66761 V 25.014847 c 0,-3.854162 -1.927,-5.781159 -5.78116,-5.781159 z m -19.741837,0.556824 v 20.940972 h -4.625 V 19.790512 Z m -1.241898,-9.078704 q 1.413194,0 1.413194,1.413194 v 2.398149 q 0,1.413194 -1.413194,1.413194 h -2.09838 q -1.413194,0 -1.413194,-1.413194 v -2.398149 q 0,-1.413194 1.413194,-1.413194 z m -12.076308,0.04282 -0.04282,23.853009 q 0,1.241898 0.685185,1.884259 0.72801,0.642362 2.055556,0.642362 h 1.884259 l 0.556713,3.340277 q -0.428241,0.214121 -1.241898,0.342593 -0.770833,0.171296 -1.627315,0.256944 -0.856481,0.08565 -1.413194,0.08565 -2.526621,0 -4.025463,-1.413194 -1.498843,-1.413194 -1.498843,-4.025463 V 10.754632 Z" /><path
           id="path3729"
           style="font-size:185px;font-family:'Exo 2';-inkscape-font-specification:'Exo 2,  @wght=550';font-variation-settings:'wght' 550;fill:#007dbc;fill-opacity:1;stroke:none;stroke-width:0"
           d="m 389.8515,19.277776 q 1.45602,0 3.08334,0.128472 1.62731,0.08565 3.2118,0.21412 1.62732,0.128472 2.91204,0.342593 l -0.34259,3.168981 q -2.01274,-0.08565 -4.06829,-0.128472 -2.01273,-0.04282 -3.98264,-0.04282 -1.79861,-0.04282 -2.82639,0.08565 -1.02778,0.08565 -1.49884,0.556713 -0.42824,0.471065 -0.42824,1.584491 0,1.413194 0.72801,1.841435 0.72801,0.428241 2.22685,0.813657 l 5.8669,1.327547 q 2.52662,0.642361 3.72569,1.927083 1.2419,1.284722 1.2419,3.939815 0,2.612268 -0.98495,3.939814 -0.94213,1.327547 -2.99769,1.798612 -2.01273,0.471064 -5.18171,0.471064 -1.19908,0 -3.59722,-0.128472 -2.35533,-0.08565 -5.18172,-0.513889 l 0.34259,-3.168981 q 0.94213,0.04282 2.09838,0.08565 1.15625,0.04282 2.4838,0.04282 1.32755,0 2.69792,0 2.26967,0 3.51157,-0.171296 1.28472,-0.171297 1.79861,-0.685185 0.51389,-0.556713 0.51389,-1.584491 0,-1.327546 -0.85648,-1.755787 -0.81366,-0.471065 -2.35532,-0.856482 l -5.73843,-1.327546 q -1.84144,-0.471065 -2.91204,-1.241898 -1.02777,-0.770833 -1.49884,-1.927083 -0.47106,-1.199074 -0.47106,-2.912037 0,-2.3125 0.85648,-3.597223 0.8993,-1.284722 2.74074,-1.755787 1.88426,-0.513889 4.88194,-0.471064 z m -32.5034,2.19e-4 c -1.5131,0 -2.96894,0.342466 -4.36785,1.027651 -1.28889,0.617592 -2.6162,1.542308 -3.98085,2.766023 l -0.34452,-3.237125 h -3.76879 v 20.940937 h 4.66805 V 25.866176 c 0.82581,-0.566796 1.57197,-1.053336 2.18417,-1.406523 0.74227,-0.428241 1.39886,-0.742357 1.96984,-0.942202 0.59953,-0.199844 1.21338,-0.29975 1.84145,-0.29975 0.97068,0 1.69836,0.242563 2.18371,0.727901 0.48535,0.485338 0.72835,1.327331 0.72835,2.526403 v 14.303476 h 4.49625 v -14.85008 c 0.83315,-0.569959 1.57774,-1.059392 2.18417,-1.423248 0.71373,-0.45679 1.3703,-0.784857 1.96984,-0.984702 0.59954,-0.199844 1.22778,-0.29975 1.8844,-0.29975 1.05634,0 1.79842,0.256963 2.22666,0.770852 0.42824,0.513887 0.64246,1.341477 0.64246,2.483452 v 14.303476 h 4.62509 V 25.059155 c 0,-1.884257 -0.48556,-3.311729 -1.45625,-4.282407 -0.97067,-0.999229 -2.36935,-1.498753 -4.1965,-1.498753 -1.48456,0 -2.92644,0.342466 -4.32535,1.027651 -1.23403,0.591305 -2.51452,1.463111 -3.84116,2.610044 -0.24572,-0.885553 -0.64648,-1.616255 -1.21211,-2.181894 -0.94213,-0.970678 -2.31245,-1.455801 -4.11106,-1.455801 z m -37.38516,0.556549 v 15.716329 c 0,3.854162 1.94095,5.781157 5.82366,5.781159 1.57023,-2e-6 3.11199,-0.328067 4.62511,-0.984701 1.39039,-0.603377 2.81743,-1.475431 4.28014,-2.609141 l 0.38792,3.037291 h 3.68291 V 19.834544 h -4.66805 V 34.83563 c -1.28766,0.783856 -2.40817,1.40056 -3.34021,1.828794 -1.02778,0.456789 -2.07005,0.684951 -3.12637,0.684951 -1.08488,0 -1.86972,-0.242563 -2.35504,-0.7279 -0.45681,-0.485341 -0.671,-1.298982 -0.64246,-2.440956 V 19.834544 Z m -4.58215,-0.556549 c -1.42748,0 -2.91209,0.356869 -4.45375,1.070602 -1.45028,0.644565 -2.88771,1.557896 -4.31271,2.733019 l -0.48375,-3.247072 h -3.63996 v 20.940937 h 4.6676 V 25.836787 c 1.50273,-0.665257 2.79541,-1.186926 3.85425,-1.548484 1.19908,-0.42824 2.36959,-0.642451 3.51156,-0.642451 h 1.37037 l 0.51405,-4.367857 z m -28.26399,-2.19e-4 q 3.76852,0 5.99537,1.070601 2.26968,1.070602 3.25463,3.511574 0.98496,2.440973 0.98496,6.466436 0,3.982638 -0.98496,6.423611 -0.98495,2.440972 -3.25463,3.511574 -2.22685,1.070602 -5.99537,1.070602 -3.68287,0 -5.95254,-1.070602 -2.26968,-1.070602 -3.29746,-3.511574 -0.98495,-2.440973 -0.98495,-6.423611 0,-4.025463 0.98495,-6.466436 1.02778,-2.440972 3.29746,-3.511574 2.26967,-1.070601 5.95254,-1.070601 z m 0,3.68287 q -2.01273,0 -3.2118,0.642361 -1.15625,0.642361 -1.62732,2.226852 -0.47106,1.584491 -0.47106,4.496528 0,2.869213 0.47106,4.453703 0.47107,1.584491 1.62732,2.226852 1.19907,0.642361 3.2118,0.642361 2.05556,0 3.21181,-0.642361 1.19907,-0.642361 1.67014,-2.226852 0.51389,-1.58449 0.51389,-4.453703 0,-2.912037 -0.51389,-4.496528 -0.47107,-1.584491 -1.67014,-2.226852 -1.15625,-0.642361 -3.21181,-0.642361 z M 269.61164,10.027778 c -1.57021,0 -2.82623,0.256963 -3.76835,0.770852 -0.91357,0.485338 -1.58456,1.199074 -2.01281,2.141203 -0.42824,0.913579 -0.64245,2.026936 -0.64245,3.340206 v 3.566262 l -3.72539,0.202093 v 3.126356 h 3.72539 v 17.600731 h 4.71102 V 23.17475 h 6.33771 v -3.340206 h -6.33771 v -2.997956 c 0,-1.170523 0.24257,-1.998113 0.72789,-2.483451 0.51389,-0.513889 1.3991,-0.770852 2.65526,-0.770852 h 4.1965 l 0.38567,-3.211806 c -0.57099,-0.08565 -1.25639,-0.157203 -2.05576,-0.214301 -0.79938,-0.0571 -1.58468,-0.08545 -2.35551,-0.08545 -0.74227,-0.02855 -1.35611,-0.04295 -1.84146,-0.04295 z" /></g></g></g></svg>
