<?xml version="1.0" encoding="UTF-8" standalone="no"?>
<!-- Created with Inkscape (http://www.inkscape.org/) -->

<svg
   width="1724"
   height="216"
   viewBox="0 0 1724 216"
   version="1.1"
   id="SVGRoot"
   sodipodi:docname="site_logo.svg"
   inkscape:version="1.2.2 (1:1.2.2+202212051552+b0a8486541)"
   xmlns:inkscape="http://www.inkscape.org/namespaces/inkscape"
   xmlns:sodipodi="http://sodipodi.sourceforge.net/DTD/sodipodi-0.dtd"
   xmlns="http://www.w3.org/2000/svg"
   xmlns:svg="http://www.w3.org/2000/svg">
  <sodipodi:namedview
     id="namedview137"
     pagecolor="#808080"
     bordercolor="#000000"
     borderopacity="0.25"
     inkscape:showpageshadow="2"
     inkscape:pageopacity="0"
     inkscape:pagecheckerboard="0"
     inkscape:deskcolor="#d1d1d1"
     inkscape:document-units="px"
     showgrid="false"
     inkscape:zoom="0.84686775"
     inkscape:cx="862"
     inkscape:cy="107.45479"
     inkscape:current-layer="layer1"
     showguides="true" />
  <defs
     id="defs132" />
  <g
     inkscape:label="Layer 1"
     inkscape:groupmode="layer"
     id="layer1">
    <g
       id="g243">
      <path
         id="path3535"
         style="font-size:185px;font-family:'Exo 2';-inkscape-font-specification:'Exo 2, @wght=550';font-variation-settings:'wght' 550;display:inline;fill:#ffffff;fill-opacity:1;stroke:none"
         d="m 1022.1387,54.9043 v 26.35742 l -16.0957,0.83789 v 13.50586 h 16.0957 v 53.09375 c 0,8.01666 2.0957,14.18334 6.289,18.5 4.1934,4.19333 10.2376,6.29101 18.1309,6.29101 1.7267,0 3.9468,-0.12442 6.6602,-0.37109 2.7133,-0.24667 5.4875,-0.61604 8.3242,-1.10937 2.8366,-0.37 5.3037,-0.86381 7.4004,-1.48047 l -2.2207,-14.42969 h -12.9493 c -4.1933,0 -7.1542,-0.80097 -8.8808,-2.4043 -1.7267,-1.72666 -2.5899,-4.5631 -2.5899,-8.50976 V 95.60547 h 27.5645 V 81.17578 h -27.5645 V 54.9043 Z m -58.2754,23.86523 c -6.66,0 -13.443,1.54167 -20.3496,4.625 -6.5406,2.80311 -13.0251,6.72696 -19.4551,11.74219 l -1.6348,-13.96094 h -16.6504 v 90.46484 h 20.1641 v -64.05273 c 6.1492,-3.4964 11.5448,-6.28524 16.0957,-8.2832 5.0567,-2.34333 10.051,-3.51563 14.9844,-3.51563 4.1933,0 7.1542,1.04982 8.8808,3.14649 1.85,1.97333 2.7754,5.61073 2.7754,10.91406 v 61.79101 h 20.1641 v -67.89648 c 0,-16.64998 -8.3246,-24.97461 -24.9746,-24.97461 z m -85.2848,2.40548 v 90.465 h -19.98 v -90.465 z m -5.365,-39.22 q 6.105,0 6.105,6.105 v 10.36 q 0,6.105 -6.105,6.105 h -9.065 q -6.105,0 -6.105,-6.105 v -10.36 q 0,-6.105 6.105,-6.105 z M 749.2637,78.76953 c -6.5367,0 -12.8258,1.48141 -18.8692,4.44141 -5.5678,2.66792 -11.3021,6.66104 -17.1972,11.94726 L 711.709,81.17578 h -16.2793 v 90.46484 h 20.1641 v -64.43359 c 3.605,-2.4768 6.7687,-4.51421 9.4355,-6.05273 3.2067,-1.85 6.0431,-3.20503 8.5098,-4.06836 2.59,-0.86333 5.2417,-1.29688 7.955,-1.29688 4.1934,0 7.3389,1.04982 9.4356,3.14649 2.0967,2.09666 3.1445,5.73406 3.1445,10.91406 v 61.79101 h 19.4238 v -64.15234 c 3.5992,-2.46223 6.8158,-4.57657 9.4356,-6.14844 3.0833,-1.97333 5.9198,-3.39057 8.5098,-4.2539 2.59,-0.86333 5.3039,-1.29688 8.1406,-1.29688 4.5633,0 7.7691,1.11008 9.6191,3.33008 1.85,2.22 2.7754,5.79714 2.7754,10.73047 v 61.79101 h 19.9805 v -67.89648 c 0,-8.13999 -2.0977,-14.30667 -6.291,-18.5 -4.1934,-4.31666 -10.2356,-6.47461 -18.1289,-6.47461 -6.4134,0 -12.6423,1.48141 -18.6856,4.44141 -5.3258,2.55196 -10.853,6.3102 -16.5781,11.25781 -1.0615,-3.82539 -2.8085,-6.96474 -5.252,-9.4082 -4.07,-4.19333 -9.9897,-6.29102 -17.7597,-6.29102 z m -161.875,2.40625 27.3808,43.84375 -29.6015,46.62109 h 21.2754 l 24.2617,-39.96093 h 2.75 l 24.4179,39.96093 h 21.0918 l -29.6015,-46.62109 27.3808,-43.84375 h -21.0898 l -21.8359,36.44336 h -3.5039 l -21.836,-36.44336 z m -100.08401,0 v 67.89453 c 0,16.64999 8.38684,24.97461 25.16015,24.97461 6.78333,0 13.44186,-1.41919 19.97852,-4.25586 6.00649,-2.60659 12.17133,-6.3719 18.49023,-11.26953 l 1.67579,13.12109 h 15.91015 V 81.17578 h -20.16601 v 64.80469 c -5.56241,3.38606 -10.40344,6.05049 -14.42969,7.90039 -4.44,1.97333 -8.94058,2.95898 -13.50391,2.95898 -4.68666,0 -8.07911,-1.04786 -10.17578,-3.14453 -1.97333,-2.09666 -2.89872,-5.61159 -2.77539,-10.54492 V 81.17578 Z m -50.32031,-2.40625 c -6.66,0 -13.44295,1.54167 -20.34961,4.625 -6.5406,2.80311 -13.0251,6.72696 -19.45508,11.74219 l -1.63477,-13.96094 h -16.65039 v 90.46484 h 20.16406 v -64.05078 c 6.14999,-3.49687 11.54437,-6.287 16.09571,-8.28515 5.05666,-2.34333 10.05104,-3.51563 14.98437,-3.51563 4.19333,0 7.1542,1.04982 8.88086,3.14649 1.85,1.97333 2.77539,5.61073 2.77539,10.91406 v 61.79101 h 20.16406 v -67.89648 c 0,-16.64998 -8.32462,-24.97461 -24.9746,-24.97461 z m -85.28474,2.40548 v 90.465 h -19.98 v -90.465 z m -5.365,-39.22 q 6.105,0 6.105,6.105 v 10.36 q 0,6.105 -6.105,6.105 h -9.065 q -6.105,0 -6.105,-6.105 v -10.36 q 0,-6.105 6.105,-6.105 z m -52.16965,0.185 -0.185,103.045 q 0,5.365 2.96,8.14 3.145,2.775 8.88,2.775 h 8.14 l 2.405,14.43 q -1.85,0.925 -5.365,1.48 -3.33,0.74 -7.03,1.11 -3.7,0.37 -6.105,0.37 -10.915,0 -17.39,-6.105 -6.475,-6.105 -6.475,-17.39 v -107.855 z" />
      <path
         id="path3537"
         style="color:#000000;fill:#ffffff;fill-opacity:1;stroke:none;stroke-width:0;stroke-dasharray:none"
         d="M 108,0 C 48.23492,0 0,48.23492 0,108 0,167.76508 48.23492,216 108,216 167.76508,216 216,167.76508 216,108 216,48.23492 167.76508,0 108,0 Z M 38,43 h 20 v 90 c 0,11.16412 8.835881,20 20,20 h 60 c 11.16412,0 20,-8.83588 20,-20 V 83 c 0,-5.64127 -4.35873,-10 -10,-10 -5.64128,0 -10,4.35872 -10,10 v 50 H 118 V 83 c 0,-5.64128 -4.35872,-10 -10,-10 -5.64128,0 -10,4.35872 -10,10 v 50 H 78 V 83 c 0,-16.45006 13.549936,-30 30,-30 7.68479,0 14.66682,3.0368 20,7.86523 C 133.33318,56.0368 140.31521,53 148,53 c 16.45006,0 30,13.54994 30,30 v 50 c 0,21.9729 -18.0271,40 -40,40 H 78 C 56.027092,173 38,154.9729 38,133 Z" />
      <path
         id="path3729"
         style="font-size:185px;font-family:'Exo 2';-inkscape-font-specification:'Exo 2,  @wght=550';font-variation-settings:'wght' 550;fill:#80d5ff;fill-opacity:1;stroke:none;stroke-width:0;stroke-opacity:0.5"
         d="m 1679.8385,78.95999 q 6.29,0 13.32,0.555 7.03,0.37 13.875,0.925 7.03,0.555 12.58,1.48 l -1.48,13.69 q -8.695,-0.37 -17.575,-0.555 -8.695,-0.185 -17.205,-0.185 -7.77,-0.185 -12.21,0.37 -4.44,0.37 -6.475,2.405 -1.85,2.035 -1.85,6.845 0,6.105 3.145,7.955 3.145,1.85 9.62,3.515 l 25.345,5.735 q 10.915,2.775 16.095,8.325 5.365,5.55 5.365,17.02 0,11.285 -4.255,17.02 -4.07,5.735 -12.95,7.77 -8.695,2.035 -22.385,2.035 -5.18,0 -15.54,-0.555 -10.175,-0.37 -22.385,-2.22 l 1.48,-13.69 q 4.07,0.185 9.065,0.37 4.995,0.185 10.73,0.185 5.735,0 11.655,0 9.805,0 15.17,-0.74 5.55,-0.74 7.77,-2.96 2.22,-2.405 2.22,-6.845 0,-5.735 -3.7,-7.585 -3.515,-2.035 -10.175,-3.7 l -24.79,-5.735 q -7.955,-2.035 -12.58,-5.365 -4.44,-3.33 -6.475,-8.325 -2.035,-5.18 -2.035,-12.58 0,-9.99 3.7,-15.54 3.885,-5.55 11.84,-7.585 8.14,-2.22 21.09,-2.035 z m -140.4147,9.5e-4 c -6.5366,0 -12.8258,1.47945 -18.8691,4.43945 -5.568,2.668 -11.302,6.66277 -17.1973,11.94922 l -1.4883,-13.98438 h -16.2812 v 90.46485 h 20.166 v -64.4082 c 3.5675,-2.44856 6.7909,-4.55041 9.4356,-6.07618 3.2066,-1.85 6.0431,-3.20698 8.5097,-4.07031 2.59,-0.86333 5.2418,-1.29492 7.9551,-1.29492 4.1933,0 7.3369,1.04787 9.4336,3.14453 2.0967,2.09666 3.1465,5.73407 3.1465,10.91406 v 61.79102 h 19.4238 v -64.15235 c 3.5992,-2.46222 6.8158,-4.57657 9.4356,-6.14843 3.0833,-1.97333 5.9197,-3.39058 8.5097,-4.25391 2.59,-0.86333 5.304,-1.29492 8.1406,-1.29492 4.5634,0 7.7692,1.11008 9.6192,3.33008 1.85,2.21999 2.7754,5.79518 2.7754,10.72851 v 61.79102 h 19.9804 v -67.89453 c 0,-8.13999 -2.0976,-14.30667 -6.291,-18.5 -4.1933,-4.31667 -10.2356,-6.47461 -18.1289,-6.47461 -6.4133,0 -12.6422,1.47945 -18.6855,4.43945 -5.331,2.55444 -10.8627,6.32064 -16.5938,11.27539 -1.0615,-3.82559 -2.7928,-6.98222 -5.2363,-9.42578 -4.07,-4.19333 -9.9898,-6.28906 -17.7598,-6.28906 z m -161.5039,2.40429 v 67.89454 c 0,16.64998 8.3849,24.9746 25.1582,24.97461 6.7834,-10e-6 13.4438,-1.41725 19.9805,-4.25391 6.0065,-2.60659 12.1713,-6.37386 18.4902,-11.27149 l 1.6758,13.1211 h 15.9102 V 81.36523 h -20.166 v 64.80469 c -5.5627,3.38626 -10.4033,6.05042 -14.4297,7.90039 -4.44,1.97333 -8.9426,2.95899 -13.5059,2.95899 -4.6867,0 -8.0772,-1.04787 -10.1738,-3.14453 -1.9734,-2.09667 -2.8987,-5.6116 -2.7754,-10.54493 V 81.36523 Z m -19.7949,-2.40429 c -6.1667,0 -12.5802,1.54167 -19.2402,4.625 -6.2652,2.78452 -12.4749,6.73011 -18.6309,11.80664 l -2.0898,-14.02735 h -15.7246 v 90.46485 h 20.164 v -64.53516 c 6.4918,-2.87391 12.0762,-5.12752 16.6504,-6.68945 5.18,-1.85 10.2366,-2.77539 15.1699,-2.77539 h 5.92 l 2.2207,-18.86914 z m -122.1004,-9.5e-4 q 16.28,0 25.9,4.625 9.805,4.625 14.06,15.17 4.255,10.545 4.255,27.935 0,17.205 -4.255,27.75 -4.255,10.545 -14.06,15.17 -9.62,4.625 -25.9,4.625 -15.91,0 -25.715,-4.625 -9.805,-4.625 -14.245,-15.17 -4.255,-10.545 -4.255,-27.75 0,-17.39 4.255,-27.935 4.44,-10.545 14.245,-15.17 9.805,-4.625 25.715,-4.625 z m 0,15.91 q -8.695,0 -13.875,2.775 -4.995,2.775 -7.03,9.62 -2.035,6.845 -2.035,19.425 0,12.395 2.035,19.24 2.035,6.845 7.03,9.62 5.18,2.775 13.875,2.775 8.88,0 13.875,-2.775 5.18,-2.775 7.215,-9.62 2.22,-6.845 2.22,-19.24 0,-12.58 -2.22,-19.425 -2.035,-6.845 -7.215,-9.62 -4.995,-2.775 -13.875,-2.775 z M 1160.4023,39 c -6.7833,0 -12.2093,1.11008 -16.2793,3.33008 -3.9466,2.09666 -6.8453,5.18 -8.6953,9.25 -1.85,3.94666 -2.7754,8.75636 -2.7754,14.42969 v 15.40625 l -16.0937,0.87304 v 13.50586 h 16.0937 v 76.03516 h 20.3516 V 95.79492 h 27.3789 V 81.36523 h -27.3789 V 68.41406 c 0,-5.05666 1.0479,-8.63185 3.1445,-10.72851 2.22,-2.22 6.0441,-3.33008 11.4707,-3.33008 h 18.1289 l 1.6661,-13.875 c -2.4667,-0.37 -5.4276,-0.67912 -8.8809,-0.92578 -3.4533,-0.24667 -6.8458,-0.36914 -10.1758,-0.36914 C 1165.1508,39.06221 1162.499,39 1160.4023,39 Z" />
    </g>
  </g>
</svg>
