<?xml version="1.0" standalone="no"?>
<!DOCTYPE svg PUBLIC "-//W3C//DTD SVG 20010904//EN"
 "http://www.w3.org/TR/2001/REC-SVG-20010904/DTD/svg10.dtd">
<svg version="1.0" xmlns="http://www.w3.org/2000/svg"
 width="700.000000pt" height="700.000000pt" viewBox="0 0 700.000000 700.000000"
 preserveAspectRatio="xMidYMid meet">
<metadata>
Created by potrace 1.14, written by Peter Selinger 2001-2017
</metadata>
<g transform="translate(0.000000,700.000000) scale(0.100000,-0.100000)"
fill="#000000" stroke="none">
<path d="M56 4398 c1 -1267 4 -2313 7 -2325 3 -12 8 -46 12 -75 12 -114 58
-292 109 -426 30 -78 114 -251 149 -307 24 -38 112 -170 117 -175 3 -3 23 -27
45 -55 103 -131 282 -295 429 -394 245 -166 501 -267 802 -318 103 -17 206
-18 1754 -18 905 0 1679 4 1720 8 41 5 107 15 145 23 39 9 77 17 85 19 8 1 35
8 60 15 25 7 50 13 55 15 6 1 23 7 38 13 16 7 32 12 37 12 4 0 48 17 97 37
681 285 1147 910 1220 1637 9 96 9 2734 -1 2816 -19 164 -88 379 -168 528
-199 370 -574 653 -988 746 -162 36 -410 41 -561 11 -13 -3 -37 -8 -53 -11
-16 -2 -32 -7 -36 -9 -4 -2 -22 -7 -40 -10 -43 -8 -189 -64 -270 -105 -59 -29
-213 -125 -243 -150 -7 -6 -30 -26 -51 -45 l-40 -34 -55 46 c-158 127 -387
248 -550 289 -67 16 -156 34 -206 40 -74 10 -294 10 -355 0 -25 -4 -61 -10
-80 -13 -175 -26 -387 -114 -560 -231 -144 -97 -244 -191 -363 -342 -51 -64
-146 -234 -191 -340 -22 -52 -63 -199 -75 -266 -6 -33 -13 -72 -17 -89 -4 -16
-8 -618 -9 -1337 l-2 -1308 493 0 493 0 1 1269 c0 878 3 1278 11 1298 6 15 9
28 8 28 -6 0 26 83 45 114 143 244 472 318 705 159 94 -65 147 -137 186 -253
l26 -76 0 -1270 0 -1269 492 0 493 0 0 1248 c1 686 4 1266 7 1289 46 310 369
494 667 380 106 -40 197 -119 249 -217 63 -117 60 -40 60 -1480 0 -815 -4
-1338 -10 -1375 -72 -441 -420 -773 -859 -822 -83 -9 -3161 -9 -3200 1 -13 3
-41 8 -62 11 -196 30 -444 181 -583 355 -98 125 -176 315 -199 490 -4 25 -7
1059 -7 2298 l0 2252 -492 0 -493 0 2 -2302z"/>
</g>
</svg>
